<svg width="156" height="48" viewBox="0 0 156 48" fill="none" xmlns="http://www.w3.org/2000/svg">
<path fill-rule="evenodd" clip-rule="evenodd" d="M0.135529 0.0976562L27.3438 0.104138C27.3438 2.56497 27.3395 5.02797 27.3373 7.48881C15.3762 8.65549 9.33755 14.3182 7.64725 23.2822L27.3502 23.3146L27.3438 30.5308C18.2729 30.5394 9.20422 30.5502 0.133379 30.5589C-0.66446 20.9748 2.10324 13.1839 8.80853 7.3743L0.126927 7.36566L0.135529 0.0976562Z" fill="#FFFDFD"/>
<path fill-rule="evenodd" clip-rule="evenodd" d="M47.3794 0.15918C37.4591 6.49383 33.4161 16.9789 33.7516 30.5577C36.0505 30.5556 38.3516 30.5534 40.6504 30.5513C40.6504 28.0559 40.8397 25.6447 41.2053 23.3157C43.2547 23.2984 45.3041 23.2789 47.3536 23.2617C49.403 23.2789 51.4524 23.2984 53.5019 23.3157C53.8675 25.6469 54.0589 28.0559 54.0567 30.5513C56.3556 30.5534 58.6566 30.5556 60.9555 30.5577C61.3125 16.981 57.2825 6.49599 47.3794 0.15918ZM47.3536 16.8665C45.8267 16.8665 44.2977 16.8643 42.7708 16.8622C43.6461 13.6408 45.1622 10.8278 47.3213 8.42534C49.5019 10.8278 51.0395 13.6408 51.9363 16.8622C50.4094 16.8622 48.8804 16.8643 47.3536 16.8665Z" fill="#FFFDFD"/>
<path fill-rule="evenodd" clip-rule="evenodd" d="M86.2692 11.747C81.594 5.01479 75.5188 0.749919 67.3555 0.170898C67.3555 10.3038 67.3555 20.4366 67.3555 30.5716C70.0199 30.5716 72.6844 30.5738 75.3511 30.5759C75.3511 23.8978 75.3554 17.2217 75.3554 10.5436C80.0564 14.5578 83.7488 19.3736 86.2692 25.1206C88.7896 19.3736 92.482 14.5578 97.183 10.5436C97.183 17.2217 97.1873 23.8978 97.1873 30.5759C99.8518 30.5759 102.516 30.5738 105.183 30.5716C105.183 20.4388 105.183 10.3059 105.183 0.170898C97.0196 0.749919 90.9444 5.01479 86.2692 11.7491V11.747Z" fill="#FFFDFD"/>
<path fill-rule="evenodd" clip-rule="evenodd" d="M119.517 0.132812L119.521 30.5508L111.523 30.553L111.528 5.00695L119.517 0.132812Z" fill="#FFFDFD"/>
<path fill-rule="evenodd" clip-rule="evenodd" d="M125.973 0.110633C125.963 10.2413 125.954 20.372 125.943 30.5006C128.335 30.5178 130.726 30.533 133.115 30.5502C133.126 23.2174 133.135 15.8868 133.145 8.55396C142.797 11.4944 148.326 18.4751 148.644 30.5546C151.059 30.5567 153.474 30.5589 155.889 30.5632C155.893 20.4109 155.9 10.2608 155.904 0.108473C153.519 0.106312 151.134 0.101991 148.75 0.0998307C148.75 3.33629 148.745 6.57276 148.743 9.81138C142.666 2.87394 135.208 -0.684439 125.973 0.110633Z" fill="#FFFDFD"/>
<path fill-rule="evenodd" clip-rule="evenodd" d="M0.137508 0.0976562C0.135358 2.5196 0.131057 4.94371 0.128906 7.36566C3.02349 7.36782 5.91592 7.37214 8.81051 7.3743C13.29 3.023 18.9953 0.302906 27.3479 0.104138C18.2792 0.101977 9.20835 0.0998168 0.139659 0.0976562H0.137508Z" fill="#D4D4D5"/>
<path fill-rule="evenodd" clip-rule="evenodd" d="M155.985 0.112158C153.574 0.109997 151.161 0.105676 148.75 0.103516C148.748 3.01158 148.662 6.80978 148.66 9.71784C152.993 14.2182 155.694 22.1754 155.89 30.5669C155.892 21.456 155.983 9.22524 155.985 0.114318V0.112158Z" fill="#D4D4D5"/>
<path d="M20.3399 39.9267H22.8388V43.8286C22.8388 44.7684 22.4431 45.2373 21.6539 45.2373C21.3636 45.2373 21.0991 45.166 20.8582 45.0234C20.6174 44.8808 20.4023 44.6777 20.2109 44.412L19.6367 45.086C19.8604 45.4101 20.1507 45.6586 20.5055 45.8314C20.8604 46.0043 21.2431 46.0885 21.6517 46.0885C22.3636 46.0885 22.9012 45.8962 23.2668 45.5138C23.6324 45.1292 23.8152 44.5502 23.8152 43.7768V39.0625H20.3378V39.9267H20.3399Z" fill="white"/>
<path d="M26.8172 39.0625H25.8301V46.0107H26.8172V39.0625Z" fill="white"/>
<path d="M33.9367 39.7387V39.0625H28.354V39.9267H32.6292L28.2852 45.3367V46.0129H34.0657V45.1487H29.612L33.9367 39.7387Z" fill="white"/>
<path d="M40.4289 39.7387V39.0625H34.8462V39.9267H39.1192L34.7773 45.3367V46.0129H40.5579V45.1487H36.1042L40.4289 39.7387Z" fill="white"/>
<path d="M54.0938 39.0625H53.0164L51.0982 41.7286L49.1649 39.0625H48.038L50.4788 42.4502L48.0079 45.8357L44.9456 39.0625H43.9671L40.8359 46.0107H41.8531L42.6123 44.2737H46.2896L47.0488 46.0107H49.0143L51.0616 43.1459L53.1347 46.0107H54.2702L51.6551 42.4178L54.0917 39.0625H54.0938ZM42.9585 43.4808L44.4488 40.0715L45.9391 43.4808H42.9563H42.9585Z" fill="white"/>
<path d="M56.7793 47.0041H57.6373L60.8997 37.6533H60.0395L56.7793 47.0041Z" fill="white"/>
<path d="M68.2315 41.0382C67.8358 40.8135 67.3821 40.7011 66.8681 40.7011C66.4337 40.7011 66.0359 40.8005 65.6767 40.9993C65.4294 41.1354 65.2187 41.3234 65.0402 41.5545V38.6465H64.0918V46.0117H65.0015V45.1777C65.1821 45.424 65.3993 45.6228 65.6595 45.7676C66.0187 45.9685 66.423 46.07 66.8703 46.07C67.3842 46.07 67.838 45.9577 68.2337 45.733C68.6294 45.5083 68.9412 45.1929 69.1713 44.791C69.4014 44.387 69.5175 43.9182 69.5175 43.3824C69.5175 42.8465 69.4014 42.3777 69.1713 41.978C68.9412 41.5783 68.6272 41.265 68.2337 41.0403L68.2315 41.0382ZM68.3261 44.3589C68.1713 44.6398 67.9606 44.858 67.6939 45.0092C67.4272 45.1626 67.1262 45.2382 66.7907 45.2382C66.4552 45.2382 66.1627 45.1626 65.8961 45.0092C65.6294 44.858 65.4187 44.6398 65.2638 44.3589C65.109 44.078 65.0316 43.7518 65.0316 43.3802C65.0316 43.0086 65.109 42.678 65.2638 42.4015C65.4187 42.1271 65.6294 41.9132 65.8961 41.762C66.1627 41.6107 66.4617 41.5329 66.7907 41.5329C67.1197 41.5329 67.4272 41.6086 67.6939 41.762C67.9606 41.9132 68.1713 42.1271 68.3261 42.4015C68.481 42.6759 68.5584 43.0021 68.5584 43.3802C68.5584 43.7583 68.481 44.0759 68.3261 44.3589Z" fill="white"/>
<path d="M72.573 44.9544L70.7472 40.75H69.7602L72.0719 45.9979L71.9042 46.3695C71.773 46.6742 71.6311 46.8859 71.4784 47.0047C71.3279 47.1235 71.1365 47.184 70.9064 47.184C70.7279 47.184 70.5601 47.1516 70.4032 47.0847C70.2462 47.0177 70.0999 46.9226 69.9687 46.7973L69.5645 47.5124C69.7365 47.6723 69.9408 47.7911 70.1773 47.8754C70.4139 47.9575 70.6591 47.9986 70.9085 47.9986C71.1795 47.9986 71.4246 47.9532 71.6504 47.8646C71.8741 47.776 72.0805 47.6248 72.2676 47.4131C72.4547 47.2013 72.6246 46.9097 72.7773 46.5402L75.3171 40.7522H74.388L72.5795 44.9565L72.573 44.9544Z" fill="white"/>
<path d="M83.7264 39.0625H78.0039V39.9267H80.3759V46.0129H81.3544V39.9267H83.7264V39.0625Z" fill="white"/>
<path d="M89.8087 39.0625H88.7313L86.8131 41.7286L84.8776 39.0625H83.7507L86.1916 42.4502L83.5938 46.0129H84.7292L86.7765 43.1481L88.8496 46.0129H89.9872L87.37 42.4178L89.8087 39.0625Z" fill="white"/>
<path d="M89.8574 39.9267H92.2273V46.0129H93.2058V39.9267H95.5778V39.0625H89.8574V39.9267Z" fill="white"/>
<path d="M100.515 40.6218C100.763 40.3842 101.055 40.1984 101.395 40.0666C101.735 39.9348 102.102 39.8678 102.496 39.8678C102.89 39.8678 103.244 39.9326 103.578 40.0623C103.911 40.1919 104.219 40.395 104.502 40.6737L105.115 40.0579C104.799 39.7015 104.414 39.4336 103.958 39.2542C103.505 39.0749 103.004 38.9863 102.457 38.9863C101.911 38.9863 101.423 39.0749 100.976 39.2499C100.528 39.4249 100.137 39.6734 99.8057 39.9953C99.4724 40.3172 99.2143 40.691 99.0294 41.1209C98.8444 41.5509 98.752 42.024 98.752 42.5404C98.752 43.0568 98.8444 43.5299 99.0294 43.9599C99.2143 44.3898 99.4702 44.7657 99.7992 45.0855C100.128 45.4074 100.518 45.6537 100.965 45.8309C101.412 46.0059 101.902 46.0945 102.438 46.0945C102.926 46.0945 103.397 46.021 103.855 45.8719C104.313 45.7228 104.713 45.5025 105.055 45.2108V42.5015H104.107V44.7592C103.928 44.8759 103.743 44.971 103.548 45.038C103.208 45.1546 102.855 45.2108 102.485 45.2108C102.09 45.2108 101.724 45.1438 101.388 45.012C101.053 44.8802 100.761 44.6923 100.513 44.4503C100.266 44.2083 100.075 43.9253 99.939 43.5969C99.8035 43.2685 99.7369 42.9163 99.7369 42.5404C99.7369 42.1645 99.8035 41.8015 99.939 41.4731C100.075 41.1447 100.266 40.8617 100.513 40.624L100.515 40.6218Z" fill="white"/>
<path d="M111.191 43.6104C111.619 43.4181 111.948 43.1416 112.178 42.7808C112.408 42.42 112.524 41.9878 112.524 41.4844C112.524 40.981 112.408 40.5489 112.178 40.1838C111.948 39.8208 111.619 39.5421 111.191 39.3498C110.763 39.1576 110.244 39.0625 109.64 39.0625H106.943V46.0107H107.93V43.8956H109.64C109.793 43.8956 109.939 43.8891 110.079 43.8783L111.567 46.0107H112.644L110.999 43.6795C111.064 43.6558 111.13 43.6363 111.191 43.6082V43.6104ZM109.61 43.0551H107.93V39.9289H109.61C110.242 39.9289 110.722 40.065 111.047 40.335C111.373 40.6073 111.535 40.9897 111.535 41.4866C111.535 41.9835 111.371 42.3681 111.047 42.6425C110.72 42.9169 110.242 43.0551 109.61 43.0551Z" fill="white"/>
<path d="M119.868 39.9894C119.535 39.6675 119.148 39.4212 118.703 39.2441C118.257 39.0691 117.771 38.9805 117.245 38.9805C116.718 38.9805 116.221 39.0691 115.771 39.2484C115.324 39.4277 114.935 39.6762 114.606 39.9981C114.277 40.32 114.019 40.6938 113.836 41.1237C113.651 41.5537 113.559 42.0246 113.559 42.5324C113.559 43.0401 113.651 43.5111 113.836 43.941C114.021 44.371 114.277 44.7469 114.606 45.0667C114.935 45.3886 115.326 45.637 115.776 45.8164C116.227 45.9957 116.716 46.0843 117.242 46.0843C117.769 46.0843 118.255 45.9957 118.7 45.8207C119.146 45.6457 119.533 45.3972 119.866 45.0753C120.199 44.7534 120.455 44.3796 120.636 43.9497C120.817 43.5197 120.907 43.0466 120.907 42.5302C120.907 42.0138 120.817 41.5407 120.636 41.1107C120.455 40.6808 120.197 40.3049 119.866 39.9851L119.868 39.9894ZM119.72 43.5975C119.584 43.9216 119.397 44.2046 119.156 44.4466C118.916 44.6886 118.634 44.8744 118.307 45.0083C117.98 45.1401 117.627 45.2071 117.245 45.2071C116.862 45.2071 116.498 45.1401 116.174 45.0083C115.847 44.8765 115.563 44.6886 115.32 44.4466C115.077 44.2046 114.888 43.9216 114.752 43.5975C114.617 43.2734 114.55 42.9191 114.55 42.5345C114.55 42.15 114.617 41.7978 114.752 41.4716C114.888 41.1475 115.077 40.8644 115.32 40.6225C115.563 40.3805 115.849 40.1947 116.174 40.0607C116.5 39.9289 116.857 39.862 117.245 39.862C117.632 39.862 117.98 39.9289 118.307 40.0607C118.634 40.1925 118.916 40.3805 119.156 40.6225C119.397 40.8644 119.584 41.1475 119.72 41.4716C119.855 41.7956 119.922 42.15 119.922 42.5345C119.922 42.9191 119.855 43.2734 119.72 43.5975Z" fill="white"/>
<path d="M127.255 42.976C127.255 43.7494 127.086 44.3155 126.746 44.6741C126.406 45.0306 125.924 45.21 125.299 45.21C124.673 45.21 124.2 45.0306 123.862 44.6741C123.522 44.3177 123.352 43.7516 123.352 42.976V39.0654H122.365V43.017C122.365 44.0238 122.625 44.7865 123.146 45.3093C123.666 45.8322 124.38 46.0936 125.29 46.0936C126.2 46.0936 126.922 45.8322 127.438 45.3093C127.954 44.7865 128.215 44.0217 128.215 43.017V39.0654H127.255V42.976Z" fill="white"/>
<path d="M135.475 40.1867C135.244 39.8238 134.915 39.5451 134.487 39.3528C134.06 39.1605 133.541 39.0654 132.937 39.0654H130.24V46.0137H131.227V43.9093H132.937C133.543 43.9093 134.06 43.8121 134.487 43.6155C134.915 43.421 135.244 43.1423 135.475 42.7815C135.705 42.4207 135.821 41.9886 135.821 41.4852C135.821 40.9818 135.705 40.5497 135.475 40.1846V40.1867ZM134.343 42.6389C134.017 42.9112 133.539 43.0451 132.907 43.0451H131.227V39.9275H132.907C133.539 39.9275 134.019 40.0636 134.343 40.3337C134.67 40.6059 134.832 40.9883 134.832 41.4852C134.832 41.9821 134.668 42.3645 134.343 42.6368V42.6389Z" fill="white"/>
</svg>
