<svg width="183" height="115" viewBox="0 0 183 115" fill="none" xmlns="http://www.w3.org/2000/svg">
<path d="M77.0324 47.5211C80.8662 47.5021 82.9421 45.2648 84.2423 42.6375C85.8484 39.3964 85.4376 35.6237 85.4376 31.6452C85.4376 23.4765 85.6709 14.9165 85.4265 6.79782C82.8416 6.25784 78.8449 7.16415 77.6395 10.6574C76.7333 13.2811 77.0313 19.3268 77.0313 22.4774C77.0313 30.8174 76.9688 39.1835 77.0335 47.5199L77.0324 47.5211Z" fill="black"/>
<path d="M96.1637 40.8293C100.062 41.2317 102.822 38.3981 104.105 36.1288C105.883 32.9821 105.45 29.0007 105.45 25.067C105.451 16.7377 105.476 8.40472 105.452 0.076534C94.5418 -0.902132 96.1426 7.67846 96.1426 15.8888C96.1426 23.9836 95.7905 32.8285 96.1637 40.8293Z" fill="black"/>
<path d="M94.946 19.2215C94.946 16.3341 95.261 11.4495 94.0442 9.31959C92.9405 7.38866 89.3733 6.27063 86.6025 6.77356C86.3529 13.7423 86.5903 21.2694 86.5903 28.3021C86.5903 31.8323 86.4361 34.9488 88.1199 37.3862C89.5175 39.41 91.6505 40.8694 94.9271 40.8682C95.1734 33.8416 94.9471 26.3036 94.9471 19.2215H94.946Z" fill="black"/>
<path d="M93.1406 69.5548L93.1589 101.672L97.964 101.69L97.9884 86.5204C106.123 85.0641 112.39 95.9229 114.016 101.69L117.851 101.694C116.904 98.0762 111.964 89.5357 107.927 87.0143C107.293 86.6185 106.437 86.3092 105.782 85.8269C114.392 83.9955 117.364 78.2407 113.479 73.064C112.073 71.19 108.351 69.9218 104.863 69.6333C102.384 69.4279 95.4548 69.2236 93.1431 69.5548H93.1406ZM106.274 84.2263C104.207 85.3157 100.74 85.648 97.9652 85.2349L98.0445 70.8519C100.266 70.6372 104.802 70.9303 106.592 71.7243C110.327 73.3825 111.089 81.6899 106.274 84.2263Z" fill="black"/>
<path d="M23.3198 69.4723L23.2768 93.7948L7.17212 72.4586C4.29271 68.5666 5.92499 69.4642 0.108171 69.4804C-0.122692 71.4778 0.0954098 94.1487 0.0466849 99.2772C0.0385641 100.135 -0.0310428 100.455 0.248545 100.947L0.872687 100.944C1.25901 100.312 1.08035 98.1969 1.08035 97.4046C1.08035 93.7647 0.931853 73.6523 1.13835 72.2053L22.8047 100.419C23.3499 101.119 23.4427 101.854 24.7107 101.663L24.6759 69.4942L23.3209 69.4734L23.3198 69.4723Z" fill="black"/>
<path d="M162.297 98.6007C162.859 97.8701 163.168 97.4142 163.72 96.6455L177.578 77.5665C178.537 76.29 179.451 74.9627 180.294 73.7311C181.675 71.7136 182.642 71.3396 182.457 69.4848C179.285 69.4756 158.39 69.1721 157.26 69.6418L157.238 70.2628L176.373 70.5432C176.277 71.125 174.153 73.8604 173.708 74.5021C172.796 75.8179 171.831 77.0056 170.96 78.2902L157.256 97.5273C156.038 99.1766 154.853 100.263 154.921 101.694H182.106L182.138 100.623L160.948 100.646C161.112 99.9511 161.88 99.142 162.297 98.5995V98.6007Z" fill="black"/>
<path d="M148.984 69.4285C148.494 74.207 149.323 83.9064 148.859 89.6817C148.757 90.96 148.543 93.0106 148.115 94.1221C145.439 101.066 134.307 101.442 130.532 97.6883C128.406 95.5752 128.551 92.8508 128.549 89.4664C128.547 86.1422 128.733 71.376 128.49 69.3799L123.863 69.3984C123.506 72.2873 123.861 82.2911 123.804 86.5613C123.781 88.3467 123.488 90.2005 123.569 91.965C123.891 98.8786 129.485 101.776 136.886 101.692C144.221 101.609 149.23 98.1862 149.884 91.6918C150.142 89.1341 150.277 71.8716 150.051 69.41L148.98 69.4297L148.984 69.4285Z" fill="black"/>
<path d="M47.816 69.3961L46.8544 69.3799L33.2637 101.671L35.0228 101.644C36.4918 97.678 38.0551 93.8564 39.5653 89.852L51.5857 89.8658C52.2169 90.6642 55.9488 100.027 56.6236 101.687L61.7761 101.694L47.8172 69.3949L47.816 69.3961ZM40.0313 88.7655C40.108 87.5241 44.6646 77.6687 45.4575 75.3952C45.828 75.7515 51.1019 88.0864 51.1503 88.7748L40.0313 88.7655Z" fill="black"/>
<path d="M85.0799 71.8872C82.6533 78.4343 79.2923 86.6177 76.5686 93.0897C76.3091 93.706 76.1065 94.2321 75.8482 94.8485C75.5875 95.4729 75.4179 96.0348 75.0014 96.4118C74.7726 95.2936 64.142 70.3943 63.4671 69.4253L58.9258 69.408C59.1477 70.4221 60.1448 72.5312 60.6069 73.4887C61.2124 74.7433 61.8224 76.3009 62.3346 77.5405C65.6558 85.5793 69.4106 93.6551 72.659 101.677L73.837 101.694C74.6019 101.318 76.9294 95.0231 77.4518 93.7812L87.4382 69.4485C85.814 69.3641 86.1691 68.9466 85.0787 71.8872H85.0799Z" fill="black"/>
<path d="M64.4741 109.493C64.1361 109.291 63.747 109.191 63.3056 109.191C62.9432 109.191 62.6112 109.279 62.3133 109.453C62.1479 109.549 62.0008 109.676 61.8731 109.828V107.396H60.8262V113.987H61.8233V113.36C61.957 113.534 62.1127 113.676 62.2926 113.784C62.5893 113.962 62.9274 114.049 63.3068 114.049C63.7482 114.049 64.1373 113.948 64.4753 113.743C64.8134 113.538 65.0809 113.255 65.2803 112.894C65.4785 112.533 65.5782 112.107 65.5782 111.616C65.5782 111.124 65.4797 110.698 65.2803 110.337C65.0821 109.976 64.8134 109.695 64.4753 109.493H64.4741ZM64.3367 112.406C64.22 112.631 64.0619 112.803 63.8637 112.921C63.6655 113.04 63.4405 113.099 63.1888 113.099C62.9371 113.099 62.7109 113.04 62.5103 112.921C62.3097 112.803 62.1504 112.631 62.0324 112.406C61.9157 112.182 61.8561 111.917 61.8561 111.616C61.8561 111.314 61.9145 111.042 62.0324 110.82C62.1492 110.599 62.3085 110.428 62.5103 110.31C62.7109 110.191 62.9371 110.132 63.1888 110.132C63.4405 110.132 63.6655 110.191 63.8637 110.31C64.0619 110.428 64.22 110.599 64.3367 110.82C64.4535 111.042 64.513 111.308 64.513 111.616C64.513 111.924 64.4547 112.182 64.3367 112.406Z" fill="black"/>
<path d="M68.037 112.364L66.7051 109.299H65.6737L67.5259 113.455L67.4511 113.62C67.3555 113.827 67.2531 113.975 67.1414 114.062C67.0309 114.15 66.8847 114.194 66.7051 114.194C66.5727 114.194 66.4438 114.168 66.316 114.117C66.1894 114.065 66.0754 113.995 65.9741 113.907L65.5781 114.621C65.7151 114.739 65.8878 114.833 66.0939 114.9C66.2999 114.968 66.506 115 66.7132 115C66.9515 115 67.1691 114.964 67.3671 114.892C67.5651 114.82 67.7458 114.693 67.907 114.512C68.0681 114.33 68.2155 114.085 68.3467 113.774L70.3302 109.298H69.3782L68.037 112.362V112.364Z" fill="black"/>
<path d="M80.1389 110.373L78.7796 108.347H77.6877H77.6646H73.1816V109.243H74.9416V114.049H75.9278V109.243H77.6877V108.381L79.5269 111.139L77.5578 114.049H78.6805L80.1047 111.879L81.5477 114.049H82.6858L80.6914 111.1L82.5493 108.347H81.4795L80.1389 110.373Z" fill="black"/>
<path d="M82.6855 109.243H84.542V114.049H85.5811V109.243H87.4376V108.347H82.6855V109.243Z" fill="black"/>
<path d="M92.0353 109.796C92.2308 109.621 92.464 109.487 92.7348 109.392C93.0055 109.297 93.2989 109.25 93.616 109.25C93.9332 109.25 94.2453 109.302 94.5186 109.404C94.7919 109.507 95.0476 109.667 95.2833 109.883L95.9915 109.25C95.7095 108.955 95.3623 108.729 94.9498 108.577C94.5374 108.424 94.0761 108.347 93.5634 108.347C93.0908 108.347 92.6558 108.417 92.2597 108.557C91.8623 108.697 91.515 108.895 91.218 109.151C90.9209 109.407 90.6927 109.71 90.531 110.058C90.3693 110.406 90.2891 110.786 90.2891 111.198C90.2891 111.609 90.3693 111.99 90.531 112.338C90.6927 112.686 90.9196 112.988 91.2129 113.245C91.5063 113.501 91.851 113.699 92.2446 113.839C92.6395 113.979 93.072 114.049 93.5446 114.049C93.9708 114.049 94.392 113.989 94.8094 113.871C95.2269 113.753 95.5942 113.577 95.9113 113.345V111.135H94.8483V112.856C94.7254 112.922 94.6001 112.975 94.4722 113.015C94.1927 113.102 93.9031 113.146 93.6035 113.146C93.2813 113.146 92.988 113.099 92.7222 113.003C92.4577 112.908 92.2271 112.772 92.0315 112.595C91.836 112.418 91.6843 112.212 91.5777 111.974C91.4712 111.736 91.4173 111.477 91.4173 111.198C91.4173 110.919 91.4712 110.651 91.5777 110.414C91.6843 110.177 91.8347 109.971 92.0315 109.796H92.0353Z" fill="black"/>
<path d="M100.497 112.147C100.848 111.988 101.12 111.756 101.311 111.454C101.501 111.153 101.597 110.794 101.597 110.375C101.597 109.957 101.501 109.596 101.311 109.292C101.12 108.989 100.848 108.755 100.497 108.591C100.145 108.428 99.7216 108.347 99.2292 108.347H96.9414V114.049H97.9746V112.387H99.2304C99.3042 112.387 99.3768 112.385 99.4472 112.381L100.581 114.049H101.693L100.416 112.18C100.443 112.17 100.47 112.159 100.497 112.146V112.147ZM100.211 109.536C100.441 109.731 100.556 110.011 100.556 110.375C100.556 110.739 100.441 111.014 100.211 111.214C99.9799 111.415 99.6374 111.516 99.182 111.516H97.9746V109.243H99.182C99.6374 109.243 99.9811 109.341 100.211 109.536Z" fill="black"/>
<path d="M107.538 109.158C107.281 108.902 106.979 108.703 106.635 108.56C106.289 108.418 105.91 108.347 105.496 108.347C105.082 108.347 104.709 108.418 104.361 108.56C104.013 108.703 103.71 108.902 103.454 109.158C103.197 109.414 102.997 109.715 102.856 110.061C102.715 110.407 102.645 110.786 102.645 111.198C102.645 111.609 102.715 111.989 102.856 112.335C102.998 112.68 103.197 112.982 103.454 113.237C103.71 113.493 104.013 113.693 104.361 113.835C104.709 113.978 105.09 114.049 105.503 114.049C105.916 114.049 106.288 113.978 106.634 113.835C106.979 113.693 107.28 113.494 107.537 113.241C107.794 112.987 107.994 112.687 108.135 112.338C108.277 111.99 108.347 111.609 108.347 111.198C108.347 110.786 108.277 110.407 108.135 110.061C107.994 109.715 107.795 109.414 107.537 109.158H107.538ZM107.216 111.977C107.123 112.213 106.992 112.418 106.827 112.595C106.66 112.772 106.463 112.908 106.236 113.003C106.009 113.099 105.762 113.146 105.495 113.146C105.228 113.146 104.98 113.099 104.754 113.003C104.527 112.908 104.331 112.772 104.164 112.595C103.997 112.418 103.867 112.212 103.774 111.974C103.681 111.736 103.634 111.477 103.634 111.198C103.634 110.919 103.681 110.653 103.774 110.418C103.867 110.182 103.998 109.976 104.167 109.799C104.336 109.622 104.533 109.487 104.758 109.391C104.982 109.296 105.227 109.249 105.495 109.249C105.763 109.249 106.01 109.296 106.236 109.391C106.463 109.487 106.66 109.622 106.827 109.799C106.992 109.976 107.123 110.182 107.216 110.418C107.31 110.653 107.356 110.913 107.356 111.198C107.356 111.483 107.31 111.743 107.216 111.978V111.977Z" fill="black"/>
<path d="M114.007 111.479C114.007 112.057 113.888 112.478 113.65 112.74C113.412 113.003 113.073 113.134 112.635 113.134C112.196 113.134 111.856 113.003 111.616 112.74C111.376 112.478 111.256 112.057 111.256 111.479V108.347H110.248V111.519C110.248 112.338 110.458 112.964 110.88 113.399C111.301 113.832 111.883 114.049 112.628 114.049C113.373 114.049 113.947 113.832 114.368 113.399C114.789 112.965 115 112.338 115 111.519V108.347H114.008V111.479H114.007Z" fill="black"/>
<path d="M120.305 108.591C119.874 108.428 119.356 108.347 118.753 108.347H115.951V114.049H117.217V112.404H118.754C119.357 112.404 119.876 112.322 120.306 112.159C120.737 111.996 121.07 111.763 121.303 111.459C121.536 111.155 121.654 110.794 121.654 110.375C121.654 109.957 121.536 109.596 121.303 109.292C121.07 108.989 120.737 108.755 120.306 108.591H120.305ZM119.955 111.211C119.672 111.41 119.253 111.509 118.695 111.509H117.217V109.244H118.695C119.253 109.244 119.674 109.342 119.955 109.537C120.237 109.732 120.378 110.012 120.378 110.376C120.378 110.74 120.237 111.014 119.955 111.211Z" fill="black"/>
</svg>
